# xmcd CD database file
# Copyright (C) 1993-1998 Ti Kan
#
# Track frame offsets:
# 150
# 28407
# 45922
# 70057
# 94995
# 117305
# 138485
# 156975
# 175522
# 196422
# 214762
#
# Disc length: 3206 seconds
# Revision: 0
# Processed by: cddbd v1.4b41PL1 Copyright (c) Steve Scherf et al.
# Submitted via: CDSpectrumPro v3.3.334
#
DISCID=9a0c840b
DTITLE=Liz Tove Vespestad - Blackout
DYEAR=1900
DGENRE=
TTITLE0=Love was an angel
TTITLE1=Where do I go?
TTITLE2=No reward
TTITLE3=Blackout
TTITLE4=Distance
TTITLE5=Last night
TTITLE6=Shadow and romance
TTITLE7=Dream to believe in
TTITLE8=Gravity
TTITLE9=Fragility
TTITLE10=Somebody's heart
EXTD=The earlier member of Somebody's Darling (The folk-country duo) has made 
EXTD=\nan exeptionell and more experimentell album then she did with Somebody'
EXTD=s \nDarling, but still in the folk genre.
EXTT0=
EXTT1=
EXTT2=
EXTT3=
EXTT4=
EXTT5=
EXTT6=
EXTT7=
EXTT8=
EXTT9=
EXTT10=
PLAYORDER=
